<?xml version="1.0" standalone="no"?>
<!DOCTYPE svg PUBLIC "-//W3C//DTD SVG 20010904//EN"
 "http://www.w3.org/TR/2001/REC-SVG-20010904/DTD/svg10.dtd">
<svg version="1.0" xmlns="http://www.w3.org/2000/svg"
 width="668.000000pt" height="668.000000pt" viewBox="0 0 668.000000 668.000000"
 preserveAspectRatio="xMidYMid meet">
<metadata>
Created by potrace 1.14, written by Peter Selinger 2001-2017
</metadata>
<g transform="translate(0.000000,668.000000) scale(0.100000,-0.100000)"
fill="#000000" stroke="none">
<path d="M0 3340 l0 -3340 3340 0 3340 0 0 3340 0 3340 -3340 0 -3340 0 0
-3340z m3478 3148 c23 -16 48 -44 61 -70 21 -44 21 -53 21 -634 0 -554 -2
-591 -19 -630 -35 -77 -129 -124 -211 -105 -52 11 -82 31 -117 78 l-28 36 -3
611 -2 611 28 46 c58 90 180 116 270 57z m-2130 -867 c21 -11 220 -203 443
-428 439 -441 436 -437 427 -534 -13 -128 -153 -207 -270 -150 -30 14 -170
148 -454 433 -389 390 -412 416 -423 462 -40 166 125 295 277 217z m4185 18
c44 -12 102 -60 124 -103 25 -48 21 -126 -10 -178 -14 -24 -207 -224 -429
-444 -435 -434 -432 -431 -529 -422 -130 13 -207 153 -149 272 13 27 162 183
432 452 354 353 419 413 453 422 54 13 64 14 108 1z m-1956 -1059 c438 -72
825 -395 977 -818 72 -202 90 -464 47 -672 -123 -586 -627 -1000 -1221 -1003
-150 -1 -233 10 -366 48 -198 58 -377 165 -530 319 -183 184 -290 380 -346
636 -30 134 -30 366 0 500 104 479 448 841 915 965 52 14 127 29 168 35 83 10
263 5 356 -10z m-2017 -1070 c77 -39 121 -132 99 -212 -14 -57 -51 -104 -99
-128 -38 -19 -60 -20 -631 -20 -584 0 -593 0 -637 21 -66 32 -97 86 -97 169 0
82 31 136 97 169 42 21 50 21 636 21 572 0 594 -1 632 -20z m4888 -1 c66 -32
97 -86 97 -169 0 -57 -4 -73 -29 -108 -16 -23 -46 -50 -70 -62 -41 -19 -59
-20 -635 -20 -568 0 -593 1 -630 20 -120 61 -145 218 -49 307 58 55 35 53 677
53 586 0 595 0 639 -21z m-4345 -1333 c39 -17 92 -71 106 -109 16 -40 13 -102
-4 -145 -20 -47 -802 -834 -860 -865 -146 -77 -314 56 -274 219 11 46 34 72
423 462 260 260 425 420 451 432 47 23 112 26 158 6z m2685 -1 c46 -20 821
-789 859 -853 86 -145 -46 -320 -211 -281 -49 11 -64 25 -469 427 -454 453
-454 454 -445 552 13 128 145 205 266 155z m-1373 -546 c54 -15 101 -52 125
-99 19 -38 20 -60 20 -631 0 -584 0 -593 -21 -637 -63 -129 -252 -137 -330
-13 l-29 46 2 611 3 611 28 36 c34 44 66 67 110 77 45 11 48 11 92 -1z"/>
<path d="M3200 4196 c-409 -86 -700 -442 -700 -856 0 -421 290 -771 710 -856
108 -22 281 -15 390 16 293 82 531 322 612 617 32 115 32 336 0 448 -84 297
-318 531 -612 615 -96 28 -304 36 -400 16z"/>
</g>
</svg>
