
        <svg xmlns="http://www.w3.org/2000/svg" xmlns:xlink="http://www.w3.org/1999/xlink" version="1.1" width="3194.805194805195" height="1076.2812515391997" viewBox="0 -29.22077922077922 3194.805194805195 1076.2812515391997">
			
			<g transform="scale(9.74025974025974) translate(10, 10)">
				<defs id="SvgjsDefs4824"/><g id="SvgjsG4825" featureKey="symbolFeature-0" transform="matrix(0.8928388621567125,0,0,0.8928388621567125,9,-3)" fill="#fff"><path xmlns="http://www.w3.org/2000/svg" d="M49.001,22.768c-1.641,0-2.97-1.329-2.97-2.97V2.97c0-1.64,1.329-2.97,2.97-2.97  c1.64,0,2.969,1.33,2.969,2.97v16.829C51.97,21.439,50.641,22.768,49.001,22.768z"/><path xmlns="http://www.w3.org/2000/svg" d="M49.001,98c-1.641,0-2.97-1.329-2.97-2.97V78.203c0-1.64,1.329-2.97,2.97-2.97c1.64,0,2.969,1.33,2.969,2.97  v16.828C51.97,96.671,50.641,98,49.001,98z"/><path xmlns="http://www.w3.org/2000/svg" d="M95.032,51.968H78.203c-1.64,0-2.97-1.328-2.97-2.969c0-1.64,1.33-2.97,2.97-2.97h16.829  c1.64,0,2.97,1.33,2.97,2.97C98.001,50.64,96.671,51.968,95.032,51.968z"/><path xmlns="http://www.w3.org/2000/svg" d="M19.798,51.968H2.969C1.329,51.968,0,50.64,0,49c0-1.64,1.329-2.97,2.969-2.97h16.829  c1.64,0,2.97,1.33,2.97,2.97C22.768,50.64,21.438,51.968,19.798,51.968z"/><path xmlns="http://www.w3.org/2000/svg" d="M81.549,84.519c-0.76,0-1.52-0.29-2.1-0.87L67.55,71.75c-1.16-1.16-1.16-3.039,0-4.198  c1.159-1.16,3.039-1.16,4.199,0L83.649,79.45c1.16,1.16,1.16,3.04,0,4.199C83.07,84.229,82.309,84.519,81.549,84.519z"/><path xmlns="http://www.w3.org/2000/svg" d="M28.353,31.321c-0.759,0-1.519-0.29-2.099-0.87l-11.9-11.899c-1.16-1.159-1.16-3.039,0-4.199  c1.16-1.16,3.04-1.16,4.2,0l11.9,11.899c1.16,1.159,1.16,3.04,0,4.2C29.873,31.031,29.113,31.321,28.353,31.321z"/><path xmlns="http://www.w3.org/2000/svg" d="M16.454,84.521c-0.76,0-1.52-0.29-2.1-0.87c-1.16-1.159-1.16-3.039,0-4.199l11.899-11.899  c1.16-1.16,3.039-1.16,4.199,0c1.16,1.159,1.16,3.038,0,4.198l-11.899,11.9C17.975,84.231,17.214,84.521,16.454,84.521z"/><path xmlns="http://www.w3.org/2000/svg" d="M69.652,31.324c-0.76,0-1.521-0.29-2.1-0.87c-1.16-1.159-1.16-3.041,0-4.2l11.899-11.9  c1.16-1.161,3.04-1.161,4.199,0c1.16,1.159,1.16,3.04,0,4.199l-11.899,11.9C71.171,31.034,70.412,31.324,69.652,31.324z"/><path xmlns="http://www.w3.org/2000/svg" d="M49.001,68.362C38.326,68.362,29.64,59.676,29.64,49c0-10.675,8.686-19.361,19.361-19.361  c10.676,0,19.361,8.686,19.361,19.361C68.362,59.676,59.677,68.362,49.001,68.362z M49.001,35.579  c-7.401,0-13.422,6.02-13.422,13.421c0,7.4,6.021,13.422,13.422,13.422c7.401,0,13.421-6.021,13.421-13.422  C62.422,41.599,56.402,35.579,49.001,35.579z"/></g><g id="SvgjsG4826" featureKey="nameFeature-0" transform="matrix(1.0807890472479096,0,0,1.0807890472479096,107.13536700997639,-1.9694685669749141)" fill="#fff"><path d="M21.6 16.4 l4.8 16.6 l0.4 0 l3.8 -21 l5.8 0 l0 2.2 l-6.2 25.8 l-6.4 0 l-5 -17 l-0.4 0 l-5 17 l-6.4 0 l-6.2 -25.8 l0 -2.2 l5.8 0 l3.8 21 l0.4 0 l4.8 -16.6 l6 0 z M40.875 40 l0 -28 l19.2 0 l0 3 l-1.4 1.4 l-12.6 0 l0 7.2 l10.2 0 l0 4.4 l-10.2 0 l0 7.6 l14 0 l0 4.4 l-19.2 0 z M77.75 12 l8.6 25.8 l0 2.2 l-5.2 0 l-1.8 -6 l-10 0 l-1.8 6 l-5.2 0 l0 -2.2 l8.6 -25.8 l6.8 0 z M74.15 17.6 l-3.6 12 l7.6 0 l-3.6 -12 l-0.4 0 z M101.425 16.4 l0 23.6 l-5.2 0 l0 -23.6 l-8 0 l0 -4.4 l21.2 0 l0 3 l-1.4 1.4 l-6.6 0 z M113.5 12 l5.2 0 l0 11.6 l10.4 0 l0 -11.6 l5.2 0 l0 28 l-5.2 0 l0 -12 l-10.4 0 l0 12 l-5.2 0 l0 -28 z M140.775 40 l0 -28 l19.2 0 l0 3 l-1.4 1.4 l-12.6 0 l0 7.2 l10.2 0 l0 4.4 l-10.2 0 l0 7.6 l14 0 l0 4.4 l-19.2 0 z M185.05 23.4 c0 5 -4.6 5.8 -4.6 5.8 l5.4 8.6 l0 2.2 l-5.2 0 l-5.4 -10.4 l-5.6 0 l0 10.4 l-5.2 0 l0 -28 l14 0 c4 0 6.6 2.6 6.6 6.2 l0 5.2 z M169.65 16.4 l0 8.8 l7.4 0 c1.6 0 2.8 -1.2 2.8 -2.6 l0 -3.6 c0 -1.4 -1.2 -2.6 -2.8 -2.6 l-7.4 0 z"/></g><g id="SvgjsG4827" featureKey="sloganFeature-0" transform="matrix(1.725997899323922,0,0,1.725997899323922,131.5836027763425,40.98921432377308)" fill="#fff"><path d="M4 20 l-2.6 0 l0 -14 l9.6 0 l0 1.5 l-0.7 0.7 l-6.3 0 l0 4.3 l5 0 l0 2.2 l-5 0 l0 5.3 z M19.700000000000003 5.800000000000001 c2 0 3.3 1.3 3.3 3.1 l0 8.2 c0 1.8 -1.3 3.1 -3.3 3.1 l-4.4 0 c-2 0 -3.3 -1.3 -3.3 -3.1 l0 -8.2 c0 -1.8 1.3 -3.1 3.3 -3.1 l4.4 0 z M16 8 c-0.8 0 -1.4 0.6 -1.4 1.3 l0 7.4 c0 0.7 0.6 1.3 1.4 1.3 l3 0 c0.8 0 1.4 -0.6 1.4 -1.3 l0 -7.4 c0 -0.7 -0.6 -1.3 -1.4 -1.3 l-3 0 z M35.7 11.7 c0 2.5 -2.3 2.9 -2.3 2.9 l2.7 4.3 l0 1.1 l-2.6 0 l-2.7 -5.2 l-2.8 0 l0 5.2 l-2.6 0 l0 -14 l7 0 c2 0 3.3 1.3 3.3 3.1 l0 2.6 z M28 8.2 l0 4.4 l3.7 0 c0.8 0 1.4 -0.6 1.4 -1.3 l0 -1.8 c0 -0.7 -0.6 -1.3 -1.4 -1.3 l-3.7 0 z M38.1 20 l0 -14 l9.6 0 l0 1.5 l-0.7 0.7 l-6.3 0 l0 3.6 l5.1 0 l0 2.2 l-5.1 0 l0 3.8 l7 0 l0 2.2 l-9.6 0 z M51.7 9.5 l0 7 c0 0.7 0.6 1.3 1.4 1.3 l5.8 0 l0 2.2 l-6.5 0 c-2 0 -3.3 -1.3 -3.3 -3.1 l0 -7.8 c0 -1.8 1.3 -3.1 3.3 -3.1 l6.5 0 l0 1.5 l-0.7 0.7 l-5.1 0 c-0.8 0 -1.4 0.6 -1.4 1.3 z M67.30000000000001 6 l4.3 12.9 l0 1.1 l-2.6 0 l-0.9 -3 l-5 0 l-0.9 3 l-2.6 0 l0 -1.1 l4.3 -12.9 l3.4 0 z M65.5 8.8 l-1.8 6 l3.8 0 l-1.8 -6 l-0.2 0 z M82.7 17 c0 1.6 -1.4 3 -3.4 3 l-6.7 0 l0 -2.2 l5.9 0 c1 0 1.6 -0.6 1.6 -1.4 l0 -0.7 c0 -0.8 -0.3 -1.2 -0.8 -1.3 l-4.1 -0.9 c-1.4 -0.3 -2.5 -1.4 -2.5 -3.1 l0 -1.4 c0 -1.6 1.4 -3 3.4 -3 l6.2 0 l0 1.5 l-0.7 0.7 l-4.7 0 c-1 0 -1.6 0.6 -1.6 1.4 l0 0.5 c0 0.8 0.3 1.1 0.8 1.2 l4.1 0.9 c1.4 0.3 2.5 1.4 2.5 3.2 l0 1.6 z M90.10000000000001 8.2 l0 11.8 l-2.6 0 l0 -11.8 l-4 0 l0 -2.2 l10.6 0 l0 1.5 l-0.7 0.7 l-3.3 0 z"/></g>
			</g>
		</svg>
	